%TF.GenerationSoftware,KiCad,Pcbnew,(5.99.0-13051-g9e760512ac)*%
%TF.CreationDate,2021-12-06T14:56:31+00:00*%
%TF.ProjectId,RF_SWITCH,52465f53-5749-4544-9348-2e6b69636164,rev?*%
%TF.SameCoordinates,Original*%
%TF.FileFunction,Legend,Top*%
%TF.FilePolarity,Positive*%
%FSLAX46Y46*%
G04 Gerber Fmt 4.6, Leading zero omitted, Abs format (unit mm)*
G04 Created by KiCad (PCBNEW (5.99.0-13051-g9e760512ac)) date 2021-12-06 14:56:31*
%MOMM*%
%LPD*%
G01*
G04 APERTURE LIST*
%ADD10C,0.150000*%
%ADD11C,0.120000*%
%ADD12C,0.100000*%
G04 APERTURE END LIST*
D10*
%TO.C,H2*%
X165354095Y-84272380D02*
X165354095Y-83272380D01*
X165354095Y-83748571D02*
X165925523Y-83748571D01*
X165925523Y-84272380D02*
X165925523Y-83272380D01*
X166354095Y-83367619D02*
X166401714Y-83320000D01*
X166496952Y-83272380D01*
X166735047Y-83272380D01*
X166830285Y-83320000D01*
X166877904Y-83367619D01*
X166925523Y-83462857D01*
X166925523Y-83558095D01*
X166877904Y-83700952D01*
X166306476Y-84272380D01*
X166925523Y-84272380D01*
%TO.C,L4*%
X108357333Y-119994380D02*
X107881142Y-119994380D01*
X107881142Y-118994380D01*
X109119238Y-119327714D02*
X109119238Y-119994380D01*
X108881142Y-118946761D02*
X108643047Y-119661047D01*
X109262095Y-119661047D01*
%TO.C,J1*%
X102028666Y-100254380D02*
X102028666Y-100968666D01*
X101981047Y-101111523D01*
X101885809Y-101206761D01*
X101742952Y-101254380D01*
X101647714Y-101254380D01*
X103028666Y-101254380D02*
X102457238Y-101254380D01*
X102742952Y-101254380D02*
X102742952Y-100254380D01*
X102647714Y-100397238D01*
X102552476Y-100492476D01*
X102457238Y-100540095D01*
%TO.C,D4*%
X117900380Y-109450095D02*
X116900380Y-109450095D01*
X116900380Y-109212000D01*
X116948000Y-109069142D01*
X117043238Y-108973904D01*
X117138476Y-108926285D01*
X117328952Y-108878666D01*
X117471809Y-108878666D01*
X117662285Y-108926285D01*
X117757523Y-108973904D01*
X117852761Y-109069142D01*
X117900380Y-109212000D01*
X117900380Y-109450095D01*
X117233714Y-108021523D02*
X117900380Y-108021523D01*
X116852761Y-108259619D02*
X117567047Y-108497714D01*
X117567047Y-107878666D01*
%TO.C,H3*%
X165354095Y-135174380D02*
X165354095Y-134174380D01*
X165354095Y-134650571D02*
X165925523Y-134650571D01*
X165925523Y-135174380D02*
X165925523Y-134174380D01*
X166306476Y-134174380D02*
X166925523Y-134174380D01*
X166592190Y-134555333D01*
X166735047Y-134555333D01*
X166830285Y-134602952D01*
X166877904Y-134650571D01*
X166925523Y-134745809D01*
X166925523Y-134983904D01*
X166877904Y-135079142D01*
X166830285Y-135126761D01*
X166735047Y-135174380D01*
X166449333Y-135174380D01*
X166354095Y-135126761D01*
X166306476Y-135079142D01*
%TO.C,Cox1*%
X106387142Y-82783809D02*
X106434761Y-82831428D01*
X106482380Y-82974285D01*
X106482380Y-83069523D01*
X106434761Y-83212380D01*
X106339523Y-83307619D01*
X106244285Y-83355238D01*
X106053809Y-83402857D01*
X105910952Y-83402857D01*
X105720476Y-83355238D01*
X105625238Y-83307619D01*
X105530000Y-83212380D01*
X105482380Y-83069523D01*
X105482380Y-82974285D01*
X105530000Y-82831428D01*
X105577619Y-82783809D01*
X106482380Y-82212380D02*
X106434761Y-82307619D01*
X106387142Y-82355238D01*
X106291904Y-82402857D01*
X106006190Y-82402857D01*
X105910952Y-82355238D01*
X105863333Y-82307619D01*
X105815714Y-82212380D01*
X105815714Y-82069523D01*
X105863333Y-81974285D01*
X105910952Y-81926666D01*
X106006190Y-81879047D01*
X106291904Y-81879047D01*
X106387142Y-81926666D01*
X106434761Y-81974285D01*
X106482380Y-82069523D01*
X106482380Y-82212380D01*
X106482380Y-81545714D02*
X105815714Y-81021904D01*
X105815714Y-81545714D02*
X106482380Y-81021904D01*
X106482380Y-80117142D02*
X106482380Y-80688571D01*
X106482380Y-80402857D02*
X105482380Y-80402857D01*
X105625238Y-80498095D01*
X105720476Y-80593333D01*
X105768095Y-80688571D01*
%TO.C,J2*%
X161972666Y-100254380D02*
X161972666Y-100968666D01*
X161925047Y-101111523D01*
X161829809Y-101206761D01*
X161686952Y-101254380D01*
X161591714Y-101254380D01*
X162401238Y-100349619D02*
X162448857Y-100302000D01*
X162544095Y-100254380D01*
X162782190Y-100254380D01*
X162877428Y-100302000D01*
X162925047Y-100349619D01*
X162972666Y-100444857D01*
X162972666Y-100540095D01*
X162925047Y-100682952D01*
X162353619Y-101254380D01*
X162972666Y-101254380D01*
%TO.C,D1*%
X120240380Y-105917095D02*
X119240380Y-105917095D01*
X119240380Y-105679000D01*
X119288000Y-105536142D01*
X119383238Y-105440904D01*
X119478476Y-105393285D01*
X119668952Y-105345666D01*
X119811809Y-105345666D01*
X120002285Y-105393285D01*
X120097523Y-105440904D01*
X120192761Y-105536142D01*
X120240380Y-105679000D01*
X120240380Y-105917095D01*
X120240380Y-104393285D02*
X120240380Y-104964714D01*
X120240380Y-104679000D02*
X119240380Y-104679000D01*
X119383238Y-104774238D01*
X119478476Y-104869476D01*
X119526095Y-104964714D01*
%TO.C,Cox2*%
X144995142Y-82783809D02*
X145042761Y-82831428D01*
X145090380Y-82974285D01*
X145090380Y-83069523D01*
X145042761Y-83212380D01*
X144947523Y-83307619D01*
X144852285Y-83355238D01*
X144661809Y-83402857D01*
X144518952Y-83402857D01*
X144328476Y-83355238D01*
X144233238Y-83307619D01*
X144138000Y-83212380D01*
X144090380Y-83069523D01*
X144090380Y-82974285D01*
X144138000Y-82831428D01*
X144185619Y-82783809D01*
X145090380Y-82212380D02*
X145042761Y-82307619D01*
X144995142Y-82355238D01*
X144899904Y-82402857D01*
X144614190Y-82402857D01*
X144518952Y-82355238D01*
X144471333Y-82307619D01*
X144423714Y-82212380D01*
X144423714Y-82069523D01*
X144471333Y-81974285D01*
X144518952Y-81926666D01*
X144614190Y-81879047D01*
X144899904Y-81879047D01*
X144995142Y-81926666D01*
X145042761Y-81974285D01*
X145090380Y-82069523D01*
X145090380Y-82212380D01*
X145090380Y-81545714D02*
X144423714Y-81021904D01*
X144423714Y-81545714D02*
X145090380Y-81021904D01*
X144185619Y-80688571D02*
X144138000Y-80640952D01*
X144090380Y-80545714D01*
X144090380Y-80307619D01*
X144138000Y-80212380D01*
X144185619Y-80164761D01*
X144280857Y-80117142D01*
X144376095Y-80117142D01*
X144518952Y-80164761D01*
X145090380Y-80736190D01*
X145090380Y-80117142D01*
%TO.C,L2*%
X156678333Y-102560380D02*
X156202142Y-102560380D01*
X156202142Y-101560380D01*
X156964047Y-101655619D02*
X157011666Y-101608000D01*
X157106904Y-101560380D01*
X157345000Y-101560380D01*
X157440238Y-101608000D01*
X157487857Y-101655619D01*
X157535476Y-101750857D01*
X157535476Y-101846095D01*
X157487857Y-101988952D01*
X156916428Y-102560380D01*
X157535476Y-102560380D01*
%TO.C,J3*%
X163496666Y-122860380D02*
X163496666Y-123574666D01*
X163449047Y-123717523D01*
X163353809Y-123812761D01*
X163210952Y-123860380D01*
X163115714Y-123860380D01*
X163877619Y-122860380D02*
X164496666Y-122860380D01*
X164163333Y-123241333D01*
X164306190Y-123241333D01*
X164401428Y-123288952D01*
X164449047Y-123336571D01*
X164496666Y-123431809D01*
X164496666Y-123669904D01*
X164449047Y-123765142D01*
X164401428Y-123812761D01*
X164306190Y-123860380D01*
X164020476Y-123860380D01*
X163925238Y-123812761D01*
X163877619Y-123765142D01*
%TO.C,L3*%
X158075333Y-123160380D02*
X157599142Y-123160380D01*
X157599142Y-122160380D01*
X158313428Y-122160380D02*
X158932476Y-122160380D01*
X158599142Y-122541333D01*
X158742000Y-122541333D01*
X158837238Y-122588952D01*
X158884857Y-122636571D01*
X158932476Y-122731809D01*
X158932476Y-122969904D01*
X158884857Y-123065142D01*
X158837238Y-123112761D01*
X158742000Y-123160380D01*
X158456285Y-123160380D01*
X158361047Y-123112761D01*
X158313428Y-123065142D01*
%TO.C,L6*%
X142210380Y-109132666D02*
X142210380Y-109608857D01*
X141210380Y-109608857D01*
X141210380Y-108370761D02*
X141210380Y-108561238D01*
X141258000Y-108656476D01*
X141305619Y-108704095D01*
X141448476Y-108799333D01*
X141638952Y-108846952D01*
X142019904Y-108846952D01*
X142115142Y-108799333D01*
X142162761Y-108751714D01*
X142210380Y-108656476D01*
X142210380Y-108466000D01*
X142162761Y-108370761D01*
X142115142Y-108323142D01*
X142019904Y-108275523D01*
X141781809Y-108275523D01*
X141686571Y-108323142D01*
X141638952Y-108370761D01*
X141591333Y-108466000D01*
X141591333Y-108656476D01*
X141638952Y-108751714D01*
X141686571Y-108799333D01*
X141781809Y-108846952D01*
%TO.C,L1*%
X107783333Y-97454380D02*
X107307142Y-97454380D01*
X107307142Y-96454380D01*
X108640476Y-97454380D02*
X108069047Y-97454380D01*
X108354761Y-97454380D02*
X108354761Y-96454380D01*
X108259523Y-96597238D01*
X108164285Y-96692476D01*
X108069047Y-96740095D01*
%TO.C,C1*%
X115067142Y-96686666D02*
X115114761Y-96734285D01*
X115162380Y-96877142D01*
X115162380Y-96972380D01*
X115114761Y-97115238D01*
X115019523Y-97210476D01*
X114924285Y-97258095D01*
X114733809Y-97305714D01*
X114590952Y-97305714D01*
X114400476Y-97258095D01*
X114305238Y-97210476D01*
X114210000Y-97115238D01*
X114162380Y-96972380D01*
X114162380Y-96877142D01*
X114210000Y-96734285D01*
X114257619Y-96686666D01*
X115162380Y-95734285D02*
X115162380Y-96305714D01*
X115162380Y-96020000D02*
X114162380Y-96020000D01*
X114305238Y-96115238D01*
X114400476Y-96210476D01*
X114448095Y-96305714D01*
%TO.C,D2*%
X123288380Y-105917095D02*
X122288380Y-105917095D01*
X122288380Y-105679000D01*
X122336000Y-105536142D01*
X122431238Y-105440904D01*
X122526476Y-105393285D01*
X122716952Y-105345666D01*
X122859809Y-105345666D01*
X123050285Y-105393285D01*
X123145523Y-105440904D01*
X123240761Y-105536142D01*
X123288380Y-105679000D01*
X123288380Y-105917095D01*
X122383619Y-104964714D02*
X122336000Y-104917095D01*
X122288380Y-104821857D01*
X122288380Y-104583761D01*
X122336000Y-104488523D01*
X122383619Y-104440904D01*
X122478857Y-104393285D01*
X122574095Y-104393285D01*
X122716952Y-104440904D01*
X123288380Y-105012333D01*
X123288380Y-104393285D01*
%TO.C,J5*%
X136572666Y-122352380D02*
X136572666Y-123066666D01*
X136525047Y-123209523D01*
X136429809Y-123304761D01*
X136286952Y-123352380D01*
X136191714Y-123352380D01*
X137525047Y-122352380D02*
X137048857Y-122352380D01*
X137001238Y-122828571D01*
X137048857Y-122780952D01*
X137144095Y-122733333D01*
X137382190Y-122733333D01*
X137477428Y-122780952D01*
X137525047Y-122828571D01*
X137572666Y-122923809D01*
X137572666Y-123161904D01*
X137525047Y-123257142D01*
X137477428Y-123304761D01*
X137382190Y-123352380D01*
X137144095Y-123352380D01*
X137048857Y-123304761D01*
X137001238Y-123257142D01*
%TO.C,Cox5*%
X164104190Y-103085142D02*
X164056571Y-103132761D01*
X163913714Y-103180380D01*
X163818476Y-103180380D01*
X163675619Y-103132761D01*
X163580380Y-103037523D01*
X163532761Y-102942285D01*
X163485142Y-102751809D01*
X163485142Y-102608952D01*
X163532761Y-102418476D01*
X163580380Y-102323238D01*
X163675619Y-102228000D01*
X163818476Y-102180380D01*
X163913714Y-102180380D01*
X164056571Y-102228000D01*
X164104190Y-102275619D01*
X164675619Y-103180380D02*
X164580380Y-103132761D01*
X164532761Y-103085142D01*
X164485142Y-102989904D01*
X164485142Y-102704190D01*
X164532761Y-102608952D01*
X164580380Y-102561333D01*
X164675619Y-102513714D01*
X164818476Y-102513714D01*
X164913714Y-102561333D01*
X164961333Y-102608952D01*
X165008952Y-102704190D01*
X165008952Y-102989904D01*
X164961333Y-103085142D01*
X164913714Y-103132761D01*
X164818476Y-103180380D01*
X164675619Y-103180380D01*
X165342285Y-103180380D02*
X165866095Y-102513714D01*
X165342285Y-102513714D02*
X165866095Y-103180380D01*
X166723238Y-102180380D02*
X166247047Y-102180380D01*
X166199428Y-102656571D01*
X166247047Y-102608952D01*
X166342285Y-102561333D01*
X166580380Y-102561333D01*
X166675619Y-102608952D01*
X166723238Y-102656571D01*
X166770857Y-102751809D01*
X166770857Y-102989904D01*
X166723238Y-103085142D01*
X166675619Y-103132761D01*
X166580380Y-103180380D01*
X166342285Y-103180380D01*
X166247047Y-103132761D01*
X166199428Y-103085142D01*
%TO.C,H1*%
X101854095Y-84272380D02*
X101854095Y-83272380D01*
X101854095Y-83748571D02*
X102425523Y-83748571D01*
X102425523Y-84272380D02*
X102425523Y-83272380D01*
X103425523Y-84272380D02*
X102854095Y-84272380D01*
X103139809Y-84272380D02*
X103139809Y-83272380D01*
X103044571Y-83415238D01*
X102949333Y-83510476D01*
X102854095Y-83558095D01*
%TO.C,C4*%
X111961142Y-123290666D02*
X112008761Y-123338285D01*
X112056380Y-123481142D01*
X112056380Y-123576380D01*
X112008761Y-123719238D01*
X111913523Y-123814476D01*
X111818285Y-123862095D01*
X111627809Y-123909714D01*
X111484952Y-123909714D01*
X111294476Y-123862095D01*
X111199238Y-123814476D01*
X111104000Y-123719238D01*
X111056380Y-123576380D01*
X111056380Y-123481142D01*
X111104000Y-123338285D01*
X111151619Y-123290666D01*
X111389714Y-122433523D02*
X112056380Y-122433523D01*
X111008761Y-122671619D02*
X111723047Y-122909714D01*
X111723047Y-122290666D01*
%TO.C,C5*%
X134961333Y-105611142D02*
X134913714Y-105658761D01*
X134770857Y-105706380D01*
X134675619Y-105706380D01*
X134532761Y-105658761D01*
X134437523Y-105563523D01*
X134389904Y-105468285D01*
X134342285Y-105277809D01*
X134342285Y-105134952D01*
X134389904Y-104944476D01*
X134437523Y-104849238D01*
X134532761Y-104754000D01*
X134675619Y-104706380D01*
X134770857Y-104706380D01*
X134913714Y-104754000D01*
X134961333Y-104801619D01*
X135866095Y-104706380D02*
X135389904Y-104706380D01*
X135342285Y-105182571D01*
X135389904Y-105134952D01*
X135485142Y-105087333D01*
X135723238Y-105087333D01*
X135818476Y-105134952D01*
X135866095Y-105182571D01*
X135913714Y-105277809D01*
X135913714Y-105515904D01*
X135866095Y-105611142D01*
X135818476Y-105658761D01*
X135723238Y-105706380D01*
X135485142Y-105706380D01*
X135389904Y-105658761D01*
X135342285Y-105611142D01*
%TO.C,C2*%
X155643142Y-96838666D02*
X155690761Y-96886285D01*
X155738380Y-97029142D01*
X155738380Y-97124380D01*
X155690761Y-97267238D01*
X155595523Y-97362476D01*
X155500285Y-97410095D01*
X155309809Y-97457714D01*
X155166952Y-97457714D01*
X154976476Y-97410095D01*
X154881238Y-97362476D01*
X154786000Y-97267238D01*
X154738380Y-97124380D01*
X154738380Y-97029142D01*
X154786000Y-96886285D01*
X154833619Y-96838666D01*
X154833619Y-96457714D02*
X154786000Y-96410095D01*
X154738380Y-96314857D01*
X154738380Y-96076761D01*
X154786000Y-95981523D01*
X154833619Y-95933904D01*
X154928857Y-95886285D01*
X155024095Y-95886285D01*
X155166952Y-95933904D01*
X155738380Y-96505333D01*
X155738380Y-95886285D01*
%TO.C,L5*%
X129204380Y-109132666D02*
X129204380Y-109608857D01*
X128204380Y-109608857D01*
X128204380Y-108323142D02*
X128204380Y-108799333D01*
X128680571Y-108846952D01*
X128632952Y-108799333D01*
X128585333Y-108704095D01*
X128585333Y-108466000D01*
X128632952Y-108370761D01*
X128680571Y-108323142D01*
X128775809Y-108275523D01*
X129013904Y-108275523D01*
X129109142Y-108323142D01*
X129156761Y-108370761D01*
X129204380Y-108466000D01*
X129204380Y-108704095D01*
X129156761Y-108799333D01*
X129109142Y-108846952D01*
%TO.C,Cox4*%
X120641142Y-137891809D02*
X120688761Y-137939428D01*
X120736380Y-138082285D01*
X120736380Y-138177523D01*
X120688761Y-138320380D01*
X120593523Y-138415619D01*
X120498285Y-138463238D01*
X120307809Y-138510857D01*
X120164952Y-138510857D01*
X119974476Y-138463238D01*
X119879238Y-138415619D01*
X119784000Y-138320380D01*
X119736380Y-138177523D01*
X119736380Y-138082285D01*
X119784000Y-137939428D01*
X119831619Y-137891809D01*
X120736380Y-137320380D02*
X120688761Y-137415619D01*
X120641142Y-137463238D01*
X120545904Y-137510857D01*
X120260190Y-137510857D01*
X120164952Y-137463238D01*
X120117333Y-137415619D01*
X120069714Y-137320380D01*
X120069714Y-137177523D01*
X120117333Y-137082285D01*
X120164952Y-137034666D01*
X120260190Y-136987047D01*
X120545904Y-136987047D01*
X120641142Y-137034666D01*
X120688761Y-137082285D01*
X120736380Y-137177523D01*
X120736380Y-137320380D01*
X120736380Y-136653714D02*
X120069714Y-136129904D01*
X120069714Y-136653714D02*
X120736380Y-136129904D01*
X120069714Y-135320380D02*
X120736380Y-135320380D01*
X119688761Y-135558476D02*
X120403047Y-135796571D01*
X120403047Y-135177523D01*
%TO.C,H4*%
X101854095Y-135174380D02*
X101854095Y-134174380D01*
X101854095Y-134650571D02*
X102425523Y-134650571D01*
X102425523Y-135174380D02*
X102425523Y-134174380D01*
X103330285Y-134507714D02*
X103330285Y-135174380D01*
X103092190Y-134126761D02*
X102854095Y-134841047D01*
X103473142Y-134841047D01*
%TO.C,C3*%
X151487142Y-124372666D02*
X151534761Y-124420285D01*
X151582380Y-124563142D01*
X151582380Y-124658380D01*
X151534761Y-124801238D01*
X151439523Y-124896476D01*
X151344285Y-124944095D01*
X151153809Y-124991714D01*
X151010952Y-124991714D01*
X150820476Y-124944095D01*
X150725238Y-124896476D01*
X150630000Y-124801238D01*
X150582380Y-124658380D01*
X150582380Y-124563142D01*
X150630000Y-124420285D01*
X150677619Y-124372666D01*
X150582380Y-124039333D02*
X150582380Y-123420285D01*
X150963333Y-123753619D01*
X150963333Y-123610761D01*
X151010952Y-123515523D01*
X151058571Y-123467904D01*
X151153809Y-123420285D01*
X151391904Y-123420285D01*
X151487142Y-123467904D01*
X151534761Y-123515523D01*
X151582380Y-123610761D01*
X151582380Y-123896476D01*
X151534761Y-123991714D01*
X151487142Y-124039333D01*
%TO.C,R6*%
X134961333Y-112848380D02*
X134628000Y-112372190D01*
X134389904Y-112848380D02*
X134389904Y-111848380D01*
X134770857Y-111848380D01*
X134866095Y-111896000D01*
X134913714Y-111943619D01*
X134961333Y-112038857D01*
X134961333Y-112181714D01*
X134913714Y-112276952D01*
X134866095Y-112324571D01*
X134770857Y-112372190D01*
X134389904Y-112372190D01*
X135818476Y-111848380D02*
X135628000Y-111848380D01*
X135532761Y-111896000D01*
X135485142Y-111943619D01*
X135389904Y-112086476D01*
X135342285Y-112276952D01*
X135342285Y-112657904D01*
X135389904Y-112753142D01*
X135437523Y-112800761D01*
X135532761Y-112848380D01*
X135723238Y-112848380D01*
X135818476Y-112800761D01*
X135866095Y-112753142D01*
X135913714Y-112657904D01*
X135913714Y-112419809D01*
X135866095Y-112324571D01*
X135818476Y-112276952D01*
X135723238Y-112229333D01*
X135532761Y-112229333D01*
X135437523Y-112276952D01*
X135389904Y-112324571D01*
X135342285Y-112419809D01*
%TO.C,Cox3*%
X160519142Y-137957809D02*
X160566761Y-138005428D01*
X160614380Y-138148285D01*
X160614380Y-138243523D01*
X160566761Y-138386380D01*
X160471523Y-138481619D01*
X160376285Y-138529238D01*
X160185809Y-138576857D01*
X160042952Y-138576857D01*
X159852476Y-138529238D01*
X159757238Y-138481619D01*
X159662000Y-138386380D01*
X159614380Y-138243523D01*
X159614380Y-138148285D01*
X159662000Y-138005428D01*
X159709619Y-137957809D01*
X160614380Y-137386380D02*
X160566761Y-137481619D01*
X160519142Y-137529238D01*
X160423904Y-137576857D01*
X160138190Y-137576857D01*
X160042952Y-137529238D01*
X159995333Y-137481619D01*
X159947714Y-137386380D01*
X159947714Y-137243523D01*
X159995333Y-137148285D01*
X160042952Y-137100666D01*
X160138190Y-137053047D01*
X160423904Y-137053047D01*
X160519142Y-137100666D01*
X160566761Y-137148285D01*
X160614380Y-137243523D01*
X160614380Y-137386380D01*
X160614380Y-136719714D02*
X159947714Y-136195904D01*
X159947714Y-136719714D02*
X160614380Y-136195904D01*
X159614380Y-135910190D02*
X159614380Y-135291142D01*
X159995333Y-135624476D01*
X159995333Y-135481619D01*
X160042952Y-135386380D01*
X160090571Y-135338761D01*
X160185809Y-135291142D01*
X160423904Y-135291142D01*
X160519142Y-135338761D01*
X160566761Y-135386380D01*
X160614380Y-135481619D01*
X160614380Y-135767333D01*
X160566761Y-135862571D01*
X160519142Y-135910190D01*
%TO.C,J4*%
X102602666Y-122860380D02*
X102602666Y-123574666D01*
X102555047Y-123717523D01*
X102459809Y-123812761D01*
X102316952Y-123860380D01*
X102221714Y-123860380D01*
X103507428Y-123193714D02*
X103507428Y-123860380D01*
X103269333Y-122812761D02*
X103031238Y-123527047D01*
X103650285Y-123527047D01*
%TO.C,D3*%
X120948380Y-109427095D02*
X119948380Y-109427095D01*
X119948380Y-109189000D01*
X119996000Y-109046142D01*
X120091238Y-108950904D01*
X120186476Y-108903285D01*
X120376952Y-108855666D01*
X120519809Y-108855666D01*
X120710285Y-108903285D01*
X120805523Y-108950904D01*
X120900761Y-109046142D01*
X120948380Y-109189000D01*
X120948380Y-109427095D01*
X119948380Y-108522333D02*
X119948380Y-107903285D01*
X120329333Y-108236619D01*
X120329333Y-108093761D01*
X120376952Y-107998523D01*
X120424571Y-107950904D01*
X120519809Y-107903285D01*
X120757904Y-107903285D01*
X120853142Y-107950904D01*
X120900761Y-107998523D01*
X120948380Y-108093761D01*
X120948380Y-108379476D01*
X120900761Y-108474714D01*
X120853142Y-108522333D01*
%TO.C,R5*%
X135198380Y-120562666D02*
X134722190Y-120896000D01*
X135198380Y-121134095D02*
X134198380Y-121134095D01*
X134198380Y-120753142D01*
X134246000Y-120657904D01*
X134293619Y-120610285D01*
X134388857Y-120562666D01*
X134531714Y-120562666D01*
X134626952Y-120610285D01*
X134674571Y-120657904D01*
X134722190Y-120753142D01*
X134722190Y-121134095D01*
X134198380Y-119657904D02*
X134198380Y-120134095D01*
X134674571Y-120181714D01*
X134626952Y-120134095D01*
X134579333Y-120038857D01*
X134579333Y-119800761D01*
X134626952Y-119705523D01*
X134674571Y-119657904D01*
X134769809Y-119610285D01*
X135007904Y-119610285D01*
X135103142Y-119657904D01*
X135150761Y-119705523D01*
X135198380Y-119800761D01*
X135198380Y-120038857D01*
X135150761Y-120134095D01*
X135103142Y-120181714D01*
D11*
%TO.C,L4*%
X108124378Y-121652000D02*
X108923622Y-121652000D01*
X108124378Y-120532000D02*
X108923622Y-120532000D01*
%TO.C,J1*%
X103613000Y-98552000D02*
G75*
G03*
X103613000Y-98552000I-1251000J0D01*
G01*
D12*
%TO.C,D4*%
X118668000Y-109802000D02*
G75*
G03*
X118668000Y-109802000I-50000J0D01*
G01*
D11*
%TO.C,Cox1*%
X113280000Y-85760000D02*
X112780000Y-85760000D01*
X112780000Y-85760000D02*
X113030000Y-85260000D01*
X113030000Y-85260000D02*
X113280000Y-85760000D01*
%TO.C,J2*%
X163557000Y-98552000D02*
G75*
G03*
X163557000Y-98552000I-1251000J0D01*
G01*
D12*
%TO.C,D1*%
X118668000Y-104089000D02*
G75*
G03*
X118668000Y-104089000I-50000J0D01*
G01*
D11*
%TO.C,Cox2*%
X151638000Y-85260000D02*
X151888000Y-85760000D01*
X151388000Y-85760000D02*
X151638000Y-85260000D01*
X151888000Y-85760000D02*
X151388000Y-85760000D01*
%TO.C,L2*%
X157244622Y-99112000D02*
X156445378Y-99112000D01*
X157244622Y-97992000D02*
X156445378Y-97992000D01*
%TO.C,J3*%
X165081000Y-121158000D02*
G75*
G03*
X165081000Y-121158000I-1251000J0D01*
G01*
%TO.C,L3*%
X158641622Y-120598000D02*
X157842378Y-120598000D01*
X158641622Y-121718000D02*
X157842378Y-121718000D01*
%TO.C,L6*%
X139648000Y-108566378D02*
X139648000Y-109365622D01*
X140768000Y-108566378D02*
X140768000Y-109365622D01*
%TO.C,L1*%
X107550378Y-97992000D02*
X108349622Y-97992000D01*
X107550378Y-99112000D02*
X108349622Y-99112000D01*
%TO.C,C1*%
X113765000Y-96258748D02*
X113765000Y-96781252D01*
X112295000Y-96258748D02*
X112295000Y-96781252D01*
D12*
%TO.C,D2*%
X121716000Y-104089000D02*
G75*
G03*
X121716000Y-104089000I-50000J0D01*
G01*
D11*
%TO.C,J5*%
X138157000Y-120650000D02*
G75*
G03*
X138157000Y-120650000I-1251000J0D01*
G01*
%TO.C,Cox5*%
X161128000Y-109978000D02*
X161128000Y-109478000D01*
X161628000Y-109728000D02*
X161128000Y-109978000D01*
X161128000Y-109478000D02*
X161628000Y-109728000D01*
%TO.C,C4*%
X112549000Y-123385252D02*
X112549000Y-122862748D01*
X114019000Y-123385252D02*
X114019000Y-122862748D01*
%TO.C,C5*%
X134866748Y-106199000D02*
X135389252Y-106199000D01*
X134866748Y-107669000D02*
X135389252Y-107669000D01*
%TO.C,C2*%
X152335000Y-96338748D02*
X152335000Y-96861252D01*
X150865000Y-96338748D02*
X150865000Y-96861252D01*
%TO.C,L5*%
X129742000Y-109365622D02*
X129742000Y-108566378D01*
X130862000Y-109365622D02*
X130862000Y-108566378D01*
%TO.C,Cox4*%
X113034000Y-132868000D02*
X113534000Y-132868000D01*
X113534000Y-132868000D02*
X113284000Y-133368000D01*
X113284000Y-133368000D02*
X113034000Y-132868000D01*
%TO.C,C3*%
X152427000Y-123451252D02*
X152427000Y-122928748D01*
X153897000Y-123451252D02*
X153897000Y-122928748D01*
%TO.C,R6*%
X134900936Y-113311000D02*
X135355064Y-113311000D01*
X134900936Y-114781000D02*
X135355064Y-114781000D01*
%TO.C,Cox3*%
X153162000Y-133434000D02*
X152912000Y-132934000D01*
X152912000Y-132934000D02*
X153412000Y-132934000D01*
X153412000Y-132934000D02*
X153162000Y-133434000D01*
%TO.C,J4*%
X104187000Y-121158000D02*
G75*
G03*
X104187000Y-121158000I-1251000J0D01*
G01*
D12*
%TO.C,D3*%
X121716000Y-109779000D02*
G75*
G03*
X121716000Y-109779000I-50000J0D01*
G01*
D11*
%TO.C,R5*%
X132361000Y-120168936D02*
X132361000Y-120623064D01*
X133831000Y-120168936D02*
X133831000Y-120623064D01*
%TD*%
M02*
