%TF.GenerationSoftware,KiCad,Pcbnew,(5.99.0-13051-g9e760512ac)*%
%TF.CreationDate,2021-12-06T14:56:31+00:00*%
%TF.ProjectId,RF_SWITCH,52465f53-5749-4544-9348-2e6b69636164,rev?*%
%TF.SameCoordinates,Original*%
%TF.FileFunction,Paste,Top*%
%TF.FilePolarity,Positive*%
%FSLAX46Y46*%
G04 Gerber Fmt 4.6, Leading zero omitted, Abs format (unit mm)*
G04 Created by KiCad (PCBNEW (5.99.0-13051-g9e760512ac)) date 2021-12-06 14:56:31*
%MOMM*%
%LPD*%
G01*
G04 APERTURE LIST*
G04 Aperture macros list*
%AMRoundRect*
0 Rectangle with rounded corners*
0 $1 Rounding radius*
0 $2 $3 $4 $5 $6 $7 $8 $9 X,Y pos of 4 corners*
0 Add a 4 corners polygon primitive as box body*
4,1,4,$2,$3,$4,$5,$6,$7,$8,$9,$2,$3,0*
0 Add four circle primitives for the rounded corners*
1,1,$1+$1,$2,$3*
1,1,$1+$1,$4,$5*
1,1,$1+$1,$6,$7*
1,1,$1+$1,$8,$9*
0 Add four rect primitives between the rounded corners*
20,1,$1+$1,$2,$3,$4,$5,0*
20,1,$1+$1,$4,$5,$6,$7,0*
20,1,$1+$1,$6,$7,$8,$9,0*
20,1,$1+$1,$8,$9,$2,$3,0*%
G04 Aperture macros list end*
%ADD10RoundRect,0.218750X-0.218750X-0.381250X0.218750X-0.381250X0.218750X0.381250X-0.218750X0.381250X0*%
%ADD11RoundRect,0.147500X0.172500X-0.147500X0.172500X0.147500X-0.172500X0.147500X-0.172500X-0.147500X0*%
%ADD12R,2.290000X5.080000*%
%ADD13R,2.420000X5.080000*%
%ADD14RoundRect,0.147500X-0.172500X0.147500X-0.172500X-0.147500X0.172500X-0.147500X0.172500X0.147500X0*%
%ADD15RoundRect,0.218750X0.218750X0.381250X-0.218750X0.381250X-0.218750X-0.381250X0.218750X-0.381250X0*%
%ADD16RoundRect,0.218750X-0.381250X0.218750X-0.381250X-0.218750X0.381250X-0.218750X0.381250X0.218750X0*%
%ADD17RoundRect,0.250000X-0.475000X0.250000X-0.475000X-0.250000X0.475000X-0.250000X0.475000X0.250000X0*%
%ADD18R,5.080000X2.290000*%
%ADD19R,5.080000X2.420000*%
%ADD20RoundRect,0.250000X0.475000X-0.250000X0.475000X0.250000X-0.475000X0.250000X-0.475000X-0.250000X0*%
%ADD21RoundRect,0.250000X-0.250000X-0.475000X0.250000X-0.475000X0.250000X0.475000X-0.250000X0.475000X0*%
%ADD22RoundRect,0.218750X0.381250X-0.218750X0.381250X0.218750X-0.381250X0.218750X-0.381250X-0.218750X0*%
%ADD23RoundRect,0.250000X-0.262500X-0.450000X0.262500X-0.450000X0.262500X0.450000X-0.262500X0.450000X0*%
%ADD24RoundRect,0.250000X-0.450000X0.262500X-0.450000X-0.262500X0.450000X-0.262500X0.450000X0.262500X0*%
G04 APERTURE END LIST*
D10*
%TO.C,L4*%
X107461500Y-121092000D03*
X109586500Y-121092000D03*
%TD*%
D11*
%TO.C,D4*%
X118618000Y-109197000D03*
X118618000Y-108227000D03*
%TD*%
D12*
%TO.C,Cox1*%
X113030000Y-81540000D03*
D13*
X117410000Y-81540000D03*
X108650000Y-81540000D03*
%TD*%
D14*
%TO.C,D1*%
X118618000Y-104694000D03*
X118618000Y-105664000D03*
%TD*%
D12*
%TO.C,Cox2*%
X151638000Y-81540000D03*
D13*
X156018000Y-81540000D03*
X147258000Y-81540000D03*
%TD*%
D15*
%TO.C,L2*%
X157907500Y-98552000D03*
X155782500Y-98552000D03*
%TD*%
%TO.C,L3*%
X159304500Y-121158000D03*
X157179500Y-121158000D03*
%TD*%
D16*
%TO.C,L6*%
X140208000Y-107903500D03*
X140208000Y-110028500D03*
%TD*%
D10*
%TO.C,L1*%
X106887500Y-98552000D03*
X109012500Y-98552000D03*
%TD*%
D17*
%TO.C,C1*%
X113030000Y-95570000D03*
X113030000Y-97470000D03*
%TD*%
D14*
%TO.C,D2*%
X121666000Y-104694000D03*
X121666000Y-105664000D03*
%TD*%
D18*
%TO.C,Cox5*%
X165348000Y-109728000D03*
D19*
X165348000Y-105348000D03*
X165348000Y-114108000D03*
%TD*%
D20*
%TO.C,C4*%
X113284000Y-124074000D03*
X113284000Y-122174000D03*
%TD*%
D21*
%TO.C,C5*%
X134178000Y-106934000D03*
X136078000Y-106934000D03*
%TD*%
D17*
%TO.C,C2*%
X151600000Y-95650000D03*
X151600000Y-97550000D03*
%TD*%
D22*
%TO.C,L5*%
X130302000Y-110028500D03*
X130302000Y-107903500D03*
%TD*%
D12*
%TO.C,Cox4*%
X113284000Y-137088000D03*
D13*
X117664000Y-137088000D03*
X108904000Y-137088000D03*
%TD*%
D20*
%TO.C,C3*%
X153162000Y-124140000D03*
X153162000Y-122240000D03*
%TD*%
D23*
%TO.C,R6*%
X134215500Y-114046000D03*
X136040500Y-114046000D03*
%TD*%
D12*
%TO.C,Cox3*%
X153162000Y-137154000D03*
D13*
X148782000Y-137154000D03*
X157542000Y-137154000D03*
%TD*%
D11*
%TO.C,D3*%
X121666000Y-109174000D03*
X121666000Y-108204000D03*
%TD*%
D24*
%TO.C,R5*%
X133096000Y-119483500D03*
X133096000Y-121308500D03*
%TD*%
M02*
