%FSLAX45Y45*%
G04 Gerber Fmt 4.5, Leading zero omitted, Abs format (unit mm)*
G04 Created by KiCad (PCBNEW (5.99.0-13051-g9e760512ac)) date 2021-12-06 14:55:34*
%MOMM*%
%LPD*%
G01*
G04 APERTURE LIST*
%TA.AperFunction,Profile*%
%ADD10C,0.100000*%
%TD*%
%ADD11C,0.200000*%
%ADD12C,0.040000*%
%ADD13C,0.046000*%
%ADD14C,0.100000*%
G04 APERTURE END LIST*
D10*
X16891000Y-7797800D02*
X9982200Y-7797800D01*
X9982200Y-7797800D02*
X9982200Y-14071600D01*
X9982200Y-14071600D02*
X16891000Y-14071600D01*
X16891000Y-14071600D02*
X16891000Y-7797800D01*
D11*
D12*
X10851200Y-8590600D02*
X10891200Y-8630600D01*
X10891200Y-8590600D02*
X10851200Y-8630600D01*
X10876600Y-13238800D02*
X10916600Y-13278800D01*
X10916600Y-13238800D02*
X10876600Y-13278800D01*
X11714800Y-8590600D02*
X11754800Y-8630600D01*
X11754800Y-8590600D02*
X11714800Y-8630600D01*
X11740200Y-13238800D02*
X11780200Y-13278800D01*
X11780200Y-13238800D02*
X11740200Y-13278800D01*
X13289600Y-12121200D02*
X13329600Y-12161200D01*
X13329600Y-12121200D02*
X13289600Y-12161200D01*
X14686600Y-8590600D02*
X14726600Y-8630600D01*
X14726600Y-8590600D02*
X14686600Y-8630600D01*
X14864400Y-13238800D02*
X14904400Y-13278800D01*
X14904400Y-13238800D02*
X14864400Y-13278800D01*
X15575600Y-8590600D02*
X15615600Y-8630600D01*
X15615600Y-8590600D02*
X15575600Y-8630600D01*
X15728000Y-13238800D02*
X15768000Y-13278800D01*
X15768000Y-13238800D02*
X15728000Y-13278800D01*
X16058200Y-10521000D02*
X16098200Y-10561000D01*
X16098200Y-10521000D02*
X16058200Y-10561000D01*
X16058200Y-11384600D02*
X16098200Y-11424600D01*
X16098200Y-11384600D02*
X16058200Y-11424600D01*
D13*
X10888000Y-8498000D02*
G75*
G03*
X10888000Y-8498000I-23000J0D01*
G01*
X10913400Y-13364800D02*
G75*
G03*
X10913400Y-13364800I-23000J0D01*
G01*
X11764000Y-8498000D02*
G75*
G03*
X11764000Y-8498000I-23000J0D01*
G01*
X11789400Y-13364800D02*
G75*
G03*
X11789400Y-13364800I-23000J0D01*
G01*
X14748800Y-8498000D02*
G75*
G03*
X14748800Y-8498000I-23000J0D01*
G01*
X14901200Y-13371400D02*
G75*
G03*
X14901200Y-13371400I-23000J0D01*
G01*
X15624800Y-8498000D02*
G75*
G03*
X15624800Y-8498000I-23000J0D01*
G01*
X15777200Y-13371400D02*
G75*
G03*
X15777200Y-13371400I-23000J0D01*
G01*
X16213800Y-10534800D02*
G75*
G03*
X16213800Y-10534800I-23000J0D01*
G01*
X16213800Y-11410800D02*
G75*
G03*
X16213800Y-11410800I-23000J0D01*
G01*
D14*
X10236200Y-9805200D02*
X10236200Y-9905200D01*
X10186200Y-9855200D02*
X10286200Y-9855200D01*
X10293600Y-12065800D02*
X10293600Y-12165800D01*
X10243600Y-12115800D02*
X10343600Y-12115800D01*
X13690600Y-12015000D02*
X13690600Y-12115000D01*
X13640600Y-12065000D02*
X13740600Y-12065000D01*
X16230600Y-9805200D02*
X16230600Y-9905200D01*
X16180600Y-9855200D02*
X16280600Y-9855200D01*
X16383000Y-12065800D02*
X16383000Y-12165800D01*
X16333000Y-12115800D02*
X16433000Y-12115800D01*
D11*
X10234819Y-14387076D02*
X10234819Y-14187076D01*
X10282438Y-14187076D01*
X10311010Y-14196600D01*
X10330057Y-14215648D01*
X10339581Y-14234695D01*
X10349105Y-14272790D01*
X10349105Y-14301362D01*
X10339581Y-14339457D01*
X10330057Y-14358505D01*
X10311010Y-14377552D01*
X10282438Y-14387076D01*
X10234819Y-14387076D01*
X10434819Y-14387076D02*
X10434819Y-14253743D01*
X10434819Y-14291838D02*
X10444343Y-14272790D01*
X10453867Y-14263267D01*
X10472914Y-14253743D01*
X10491962Y-14253743D01*
X10558629Y-14387076D02*
X10558629Y-14253743D01*
X10558629Y-14187076D02*
X10549105Y-14196600D01*
X10558629Y-14206124D01*
X10568152Y-14196600D01*
X10558629Y-14187076D01*
X10558629Y-14206124D01*
X10682438Y-14387076D02*
X10663390Y-14377552D01*
X10653867Y-14358505D01*
X10653867Y-14187076D01*
X10787200Y-14387076D02*
X10768152Y-14377552D01*
X10758629Y-14358505D01*
X10758629Y-14187076D01*
X11015771Y-14387076D02*
X11015771Y-14187076D01*
X11082438Y-14329933D01*
X11149105Y-14187076D01*
X11149105Y-14387076D01*
X11330057Y-14387076D02*
X11330057Y-14282314D01*
X11320533Y-14263267D01*
X11301486Y-14253743D01*
X11263390Y-14253743D01*
X11244343Y-14263267D01*
X11330057Y-14377552D02*
X11311009Y-14387076D01*
X11263390Y-14387076D01*
X11244343Y-14377552D01*
X11234819Y-14358505D01*
X11234819Y-14339457D01*
X11244343Y-14320409D01*
X11263390Y-14310886D01*
X11311009Y-14310886D01*
X11330057Y-14301362D01*
X11425295Y-14253743D02*
X11425295Y-14453743D01*
X11425295Y-14263267D02*
X11444343Y-14253743D01*
X11482438Y-14253743D01*
X11501486Y-14263267D01*
X11511009Y-14272790D01*
X11520533Y-14291838D01*
X11520533Y-14348981D01*
X11511009Y-14368028D01*
X11501486Y-14377552D01*
X11482438Y-14387076D01*
X11444343Y-14387076D01*
X11425295Y-14377552D01*
X11606248Y-14368028D02*
X11615771Y-14377552D01*
X11606248Y-14387076D01*
X11596724Y-14377552D01*
X11606248Y-14368028D01*
X11606248Y-14387076D01*
X11606248Y-14263267D02*
X11615771Y-14272790D01*
X11606248Y-14282314D01*
X11596724Y-14272790D01*
X11606248Y-14263267D01*
X11606248Y-14282314D01*
D12*
X9937200Y-14696600D02*
X9977200Y-14736600D01*
X9977200Y-14696600D02*
X9937200Y-14736600D01*
D11*
X10272914Y-14607076D02*
X10291962Y-14607076D01*
X10311010Y-14616600D01*
X10320533Y-14626124D01*
X10330057Y-14645171D01*
X10339581Y-14683267D01*
X10339581Y-14730886D01*
X10330057Y-14768981D01*
X10320533Y-14788028D01*
X10311010Y-14797552D01*
X10291962Y-14807076D01*
X10272914Y-14807076D01*
X10253867Y-14797552D01*
X10244343Y-14788028D01*
X10234819Y-14768981D01*
X10225295Y-14730886D01*
X10225295Y-14683267D01*
X10234819Y-14645171D01*
X10244343Y-14626124D01*
X10253867Y-14616600D01*
X10272914Y-14607076D01*
X10425295Y-14788028D02*
X10434819Y-14797552D01*
X10425295Y-14807076D01*
X10415771Y-14797552D01*
X10425295Y-14788028D01*
X10425295Y-14807076D01*
X10606248Y-14673743D02*
X10606248Y-14807076D01*
X10558629Y-14597552D02*
X10511010Y-14740409D01*
X10634819Y-14740409D01*
X10749105Y-14607076D02*
X10768152Y-14607076D01*
X10787200Y-14616600D01*
X10796724Y-14626124D01*
X10806248Y-14645171D01*
X10815771Y-14683267D01*
X10815771Y-14730886D01*
X10806248Y-14768981D01*
X10796724Y-14788028D01*
X10787200Y-14797552D01*
X10768152Y-14807076D01*
X10749105Y-14807076D01*
X10730057Y-14797552D01*
X10720533Y-14788028D01*
X10711010Y-14768981D01*
X10701486Y-14730886D01*
X10701486Y-14683267D01*
X10711010Y-14645171D01*
X10720533Y-14626124D01*
X10730057Y-14616600D01*
X10749105Y-14607076D01*
X10939581Y-14607076D02*
X10958629Y-14607076D01*
X10977676Y-14616600D01*
X10987200Y-14626124D01*
X10996724Y-14645171D01*
X11006248Y-14683267D01*
X11006248Y-14730886D01*
X10996724Y-14768981D01*
X10987200Y-14788028D01*
X10977676Y-14797552D01*
X10958629Y-14807076D01*
X10939581Y-14807076D01*
X10920533Y-14797552D01*
X10911010Y-14788028D01*
X10901486Y-14768981D01*
X10891962Y-14730886D01*
X10891962Y-14683267D01*
X10901486Y-14645171D01*
X10911010Y-14626124D01*
X10920533Y-14616600D01*
X10939581Y-14607076D01*
X11091962Y-14807076D02*
X11091962Y-14673743D01*
X11091962Y-14692790D02*
X11101486Y-14683267D01*
X11120533Y-14673743D01*
X11149105Y-14673743D01*
X11168152Y-14683267D01*
X11177676Y-14702314D01*
X11177676Y-14807076D01*
X11177676Y-14702314D02*
X11187200Y-14683267D01*
X11206248Y-14673743D01*
X11234819Y-14673743D01*
X11253867Y-14683267D01*
X11263390Y-14702314D01*
X11263390Y-14807076D01*
X11358628Y-14807076D02*
X11358628Y-14673743D01*
X11358628Y-14692790D02*
X11368152Y-14683267D01*
X11387200Y-14673743D01*
X11415771Y-14673743D01*
X11434819Y-14683267D01*
X11444343Y-14702314D01*
X11444343Y-14807076D01*
X11444343Y-14702314D02*
X11453867Y-14683267D01*
X11472914Y-14673743D01*
X11501486Y-14673743D01*
X11520533Y-14683267D01*
X11530057Y-14702314D01*
X11530057Y-14807076D01*
X11920533Y-14597552D02*
X11749105Y-14854695D01*
X12177676Y-14607076D02*
X12196724Y-14607076D01*
X12215771Y-14616600D01*
X12225295Y-14626124D01*
X12234819Y-14645171D01*
X12244343Y-14683267D01*
X12244343Y-14730886D01*
X12234819Y-14768981D01*
X12225295Y-14788028D01*
X12215771Y-14797552D01*
X12196724Y-14807076D01*
X12177676Y-14807076D01*
X12158628Y-14797552D01*
X12149105Y-14788028D01*
X12139581Y-14768981D01*
X12130057Y-14730886D01*
X12130057Y-14683267D01*
X12139581Y-14645171D01*
X12149105Y-14626124D01*
X12158628Y-14616600D01*
X12177676Y-14607076D01*
X12330057Y-14788028D02*
X12339581Y-14797552D01*
X12330057Y-14807076D01*
X12320533Y-14797552D01*
X12330057Y-14788028D01*
X12330057Y-14807076D01*
X12463390Y-14607076D02*
X12482438Y-14607076D01*
X12501486Y-14616600D01*
X12511009Y-14626124D01*
X12520533Y-14645171D01*
X12530057Y-14683267D01*
X12530057Y-14730886D01*
X12520533Y-14768981D01*
X12511009Y-14788028D01*
X12501486Y-14797552D01*
X12482438Y-14807076D01*
X12463390Y-14807076D01*
X12444343Y-14797552D01*
X12434819Y-14788028D01*
X12425295Y-14768981D01*
X12415771Y-14730886D01*
X12415771Y-14683267D01*
X12425295Y-14645171D01*
X12434819Y-14626124D01*
X12444343Y-14616600D01*
X12463390Y-14607076D01*
X12720533Y-14807076D02*
X12606248Y-14807076D01*
X12663390Y-14807076D02*
X12663390Y-14607076D01*
X12644343Y-14635648D01*
X12625295Y-14654695D01*
X12606248Y-14664219D01*
X12901486Y-14607076D02*
X12806248Y-14607076D01*
X12796724Y-14702314D01*
X12806248Y-14692790D01*
X12825295Y-14683267D01*
X12872914Y-14683267D01*
X12891962Y-14692790D01*
X12901486Y-14702314D01*
X12911009Y-14721362D01*
X12911009Y-14768981D01*
X12901486Y-14788028D01*
X12891962Y-14797552D01*
X12872914Y-14807076D01*
X12825295Y-14807076D01*
X12806248Y-14797552D01*
X12796724Y-14788028D01*
X12977676Y-14607076D02*
X13111009Y-14607076D01*
X13025295Y-14807076D01*
X13177676Y-14607076D02*
X13177676Y-14645171D01*
X13253867Y-14607076D02*
X13253867Y-14645171D01*
X13549105Y-14883267D02*
X13539581Y-14873743D01*
X13520533Y-14845171D01*
X13511009Y-14826124D01*
X13501486Y-14797552D01*
X13491962Y-14749933D01*
X13491962Y-14711838D01*
X13501486Y-14664219D01*
X13511009Y-14635648D01*
X13520533Y-14616600D01*
X13539581Y-14588028D01*
X13549105Y-14578505D01*
X13730057Y-14807076D02*
X13615771Y-14807076D01*
X13672914Y-14807076D02*
X13672914Y-14607076D01*
X13653867Y-14635648D01*
X13634819Y-14654695D01*
X13615771Y-14664219D01*
X13920533Y-14807076D02*
X13806248Y-14807076D01*
X13863390Y-14807076D02*
X13863390Y-14607076D01*
X13844343Y-14635648D01*
X13825295Y-14654695D01*
X13806248Y-14664219D01*
X14158628Y-14807076D02*
X14158628Y-14607076D01*
X14244343Y-14807076D02*
X14244343Y-14702314D01*
X14234819Y-14683267D01*
X14215771Y-14673743D01*
X14187200Y-14673743D01*
X14168152Y-14683267D01*
X14158628Y-14692790D01*
X14368152Y-14807076D02*
X14349105Y-14797552D01*
X14339581Y-14788028D01*
X14330057Y-14768981D01*
X14330057Y-14711838D01*
X14339581Y-14692790D01*
X14349105Y-14683267D01*
X14368152Y-14673743D01*
X14396724Y-14673743D01*
X14415771Y-14683267D01*
X14425295Y-14692790D01*
X14434819Y-14711838D01*
X14434819Y-14768981D01*
X14425295Y-14788028D01*
X14415771Y-14797552D01*
X14396724Y-14807076D01*
X14368152Y-14807076D01*
X14549105Y-14807076D02*
X14530057Y-14797552D01*
X14520533Y-14778505D01*
X14520533Y-14607076D01*
X14701486Y-14797552D02*
X14682438Y-14807076D01*
X14644343Y-14807076D01*
X14625295Y-14797552D01*
X14615771Y-14778505D01*
X14615771Y-14702314D01*
X14625295Y-14683267D01*
X14644343Y-14673743D01*
X14682438Y-14673743D01*
X14701486Y-14683267D01*
X14711009Y-14702314D01*
X14711009Y-14721362D01*
X14615771Y-14740409D01*
X14787200Y-14797552D02*
X14806248Y-14807076D01*
X14844343Y-14807076D01*
X14863390Y-14797552D01*
X14872914Y-14778505D01*
X14872914Y-14768981D01*
X14863390Y-14749933D01*
X14844343Y-14740409D01*
X14815771Y-14740409D01*
X14796724Y-14730886D01*
X14787200Y-14711838D01*
X14787200Y-14702314D01*
X14796724Y-14683267D01*
X14815771Y-14673743D01*
X14844343Y-14673743D01*
X14863390Y-14683267D01*
X14939581Y-14883267D02*
X14949105Y-14873743D01*
X14968152Y-14845171D01*
X14977676Y-14826124D01*
X14987200Y-14797552D01*
X14996724Y-14749933D01*
X14996724Y-14711838D01*
X14987200Y-14664219D01*
X14977676Y-14635648D01*
X14968152Y-14616600D01*
X14949105Y-14588028D01*
X14939581Y-14578505D01*
D13*
X9977200Y-14980600D02*
G75*
G03*
X9977200Y-14980600I-23000J0D01*
G01*
D11*
X10272914Y-14871076D02*
X10291962Y-14871076D01*
X10311010Y-14880600D01*
X10320533Y-14890124D01*
X10330057Y-14909171D01*
X10339581Y-14947267D01*
X10339581Y-14994886D01*
X10330057Y-15032981D01*
X10320533Y-15052028D01*
X10311010Y-15061552D01*
X10291962Y-15071076D01*
X10272914Y-15071076D01*
X10253867Y-15061552D01*
X10244343Y-15052028D01*
X10234819Y-15032981D01*
X10225295Y-14994886D01*
X10225295Y-14947267D01*
X10234819Y-14909171D01*
X10244343Y-14890124D01*
X10253867Y-14880600D01*
X10272914Y-14871076D01*
X10425295Y-15052028D02*
X10434819Y-15061552D01*
X10425295Y-15071076D01*
X10415771Y-15061552D01*
X10425295Y-15052028D01*
X10425295Y-15071076D01*
X10606248Y-14937743D02*
X10606248Y-15071076D01*
X10558629Y-14861552D02*
X10511010Y-15004409D01*
X10634819Y-15004409D01*
X10796724Y-14871076D02*
X10758629Y-14871076D01*
X10739581Y-14880600D01*
X10730057Y-14890124D01*
X10711010Y-14918695D01*
X10701486Y-14956790D01*
X10701486Y-15032981D01*
X10711010Y-15052028D01*
X10720533Y-15061552D01*
X10739581Y-15071076D01*
X10777676Y-15071076D01*
X10796724Y-15061552D01*
X10806248Y-15052028D01*
X10815771Y-15032981D01*
X10815771Y-14985362D01*
X10806248Y-14966314D01*
X10796724Y-14956790D01*
X10777676Y-14947267D01*
X10739581Y-14947267D01*
X10720533Y-14956790D01*
X10711010Y-14966314D01*
X10701486Y-14985362D01*
X10939581Y-14871076D02*
X10958629Y-14871076D01*
X10977676Y-14880600D01*
X10987200Y-14890124D01*
X10996724Y-14909171D01*
X11006248Y-14947267D01*
X11006248Y-14994886D01*
X10996724Y-15032981D01*
X10987200Y-15052028D01*
X10977676Y-15061552D01*
X10958629Y-15071076D01*
X10939581Y-15071076D01*
X10920533Y-15061552D01*
X10911010Y-15052028D01*
X10901486Y-15032981D01*
X10891962Y-14994886D01*
X10891962Y-14947267D01*
X10901486Y-14909171D01*
X10911010Y-14890124D01*
X10920533Y-14880600D01*
X10939581Y-14871076D01*
X11091962Y-15071076D02*
X11091962Y-14937743D01*
X11091962Y-14956790D02*
X11101486Y-14947267D01*
X11120533Y-14937743D01*
X11149105Y-14937743D01*
X11168152Y-14947267D01*
X11177676Y-14966314D01*
X11177676Y-15071076D01*
X11177676Y-14966314D02*
X11187200Y-14947267D01*
X11206248Y-14937743D01*
X11234819Y-14937743D01*
X11253867Y-14947267D01*
X11263390Y-14966314D01*
X11263390Y-15071076D01*
X11358628Y-15071076D02*
X11358628Y-14937743D01*
X11358628Y-14956790D02*
X11368152Y-14947267D01*
X11387200Y-14937743D01*
X11415771Y-14937743D01*
X11434819Y-14947267D01*
X11444343Y-14966314D01*
X11444343Y-15071076D01*
X11444343Y-14966314D02*
X11453867Y-14947267D01*
X11472914Y-14937743D01*
X11501486Y-14937743D01*
X11520533Y-14947267D01*
X11530057Y-14966314D01*
X11530057Y-15071076D01*
X11920533Y-14861552D02*
X11749105Y-15118695D01*
X12177676Y-14871076D02*
X12196724Y-14871076D01*
X12215771Y-14880600D01*
X12225295Y-14890124D01*
X12234819Y-14909171D01*
X12244343Y-14947267D01*
X12244343Y-14994886D01*
X12234819Y-15032981D01*
X12225295Y-15052028D01*
X12215771Y-15061552D01*
X12196724Y-15071076D01*
X12177676Y-15071076D01*
X12158628Y-15061552D01*
X12149105Y-15052028D01*
X12139581Y-15032981D01*
X12130057Y-14994886D01*
X12130057Y-14947267D01*
X12139581Y-14909171D01*
X12149105Y-14890124D01*
X12158628Y-14880600D01*
X12177676Y-14871076D01*
X12330057Y-15052028D02*
X12339581Y-15061552D01*
X12330057Y-15071076D01*
X12320533Y-15061552D01*
X12330057Y-15052028D01*
X12330057Y-15071076D01*
X12463390Y-14871076D02*
X12482438Y-14871076D01*
X12501486Y-14880600D01*
X12511009Y-14890124D01*
X12520533Y-14909171D01*
X12530057Y-14947267D01*
X12530057Y-14994886D01*
X12520533Y-15032981D01*
X12511009Y-15052028D01*
X12501486Y-15061552D01*
X12482438Y-15071076D01*
X12463390Y-15071076D01*
X12444343Y-15061552D01*
X12434819Y-15052028D01*
X12425295Y-15032981D01*
X12415771Y-14994886D01*
X12415771Y-14947267D01*
X12425295Y-14909171D01*
X12434819Y-14890124D01*
X12444343Y-14880600D01*
X12463390Y-14871076D01*
X12720533Y-15071076D02*
X12606248Y-15071076D01*
X12663390Y-15071076D02*
X12663390Y-14871076D01*
X12644343Y-14899648D01*
X12625295Y-14918695D01*
X12606248Y-14928219D01*
X12834819Y-14956790D02*
X12815771Y-14947267D01*
X12806248Y-14937743D01*
X12796724Y-14918695D01*
X12796724Y-14909171D01*
X12806248Y-14890124D01*
X12815771Y-14880600D01*
X12834819Y-14871076D01*
X12872914Y-14871076D01*
X12891962Y-14880600D01*
X12901486Y-14890124D01*
X12911009Y-14909171D01*
X12911009Y-14918695D01*
X12901486Y-14937743D01*
X12891962Y-14947267D01*
X12872914Y-14956790D01*
X12834819Y-14956790D01*
X12815771Y-14966314D01*
X12806248Y-14975838D01*
X12796724Y-14994886D01*
X12796724Y-15032981D01*
X12806248Y-15052028D01*
X12815771Y-15061552D01*
X12834819Y-15071076D01*
X12872914Y-15071076D01*
X12891962Y-15061552D01*
X12901486Y-15052028D01*
X12911009Y-15032981D01*
X12911009Y-14994886D01*
X12901486Y-14975838D01*
X12891962Y-14966314D01*
X12872914Y-14956790D01*
X13101486Y-15071076D02*
X12987200Y-15071076D01*
X13044343Y-15071076D02*
X13044343Y-14871076D01*
X13025295Y-14899648D01*
X13006248Y-14918695D01*
X12987200Y-14928219D01*
X13177676Y-14871076D02*
X13177676Y-14909171D01*
X13253867Y-14871076D02*
X13253867Y-14909171D01*
X13549105Y-15147267D02*
X13539581Y-15137743D01*
X13520533Y-15109171D01*
X13511009Y-15090124D01*
X13501486Y-15061552D01*
X13491962Y-15013933D01*
X13491962Y-14975838D01*
X13501486Y-14928219D01*
X13511009Y-14899648D01*
X13520533Y-14880600D01*
X13539581Y-14852028D01*
X13549105Y-14842505D01*
X13730057Y-15071076D02*
X13615771Y-15071076D01*
X13672914Y-15071076D02*
X13672914Y-14871076D01*
X13653867Y-14899648D01*
X13634819Y-14918695D01*
X13615771Y-14928219D01*
X13853867Y-14871076D02*
X13872914Y-14871076D01*
X13891962Y-14880600D01*
X13901486Y-14890124D01*
X13911009Y-14909171D01*
X13920533Y-14947267D01*
X13920533Y-14994886D01*
X13911009Y-15032981D01*
X13901486Y-15052028D01*
X13891962Y-15061552D01*
X13872914Y-15071076D01*
X13853867Y-15071076D01*
X13834819Y-15061552D01*
X13825295Y-15052028D01*
X13815771Y-15032981D01*
X13806248Y-14994886D01*
X13806248Y-14947267D01*
X13815771Y-14909171D01*
X13825295Y-14890124D01*
X13834819Y-14880600D01*
X13853867Y-14871076D01*
X14158628Y-15071076D02*
X14158628Y-14871076D01*
X14244343Y-15071076D02*
X14244343Y-14966314D01*
X14234819Y-14947267D01*
X14215771Y-14937743D01*
X14187200Y-14937743D01*
X14168152Y-14947267D01*
X14158628Y-14956790D01*
X14368152Y-15071076D02*
X14349105Y-15061552D01*
X14339581Y-15052028D01*
X14330057Y-15032981D01*
X14330057Y-14975838D01*
X14339581Y-14956790D01*
X14349105Y-14947267D01*
X14368152Y-14937743D01*
X14396724Y-14937743D01*
X14415771Y-14947267D01*
X14425295Y-14956790D01*
X14434819Y-14975838D01*
X14434819Y-15032981D01*
X14425295Y-15052028D01*
X14415771Y-15061552D01*
X14396724Y-15071076D01*
X14368152Y-15071076D01*
X14549105Y-15071076D02*
X14530057Y-15061552D01*
X14520533Y-15042505D01*
X14520533Y-14871076D01*
X14701486Y-15061552D02*
X14682438Y-15071076D01*
X14644343Y-15071076D01*
X14625295Y-15061552D01*
X14615771Y-15042505D01*
X14615771Y-14966314D01*
X14625295Y-14947267D01*
X14644343Y-14937743D01*
X14682438Y-14937743D01*
X14701486Y-14947267D01*
X14711009Y-14966314D01*
X14711009Y-14985362D01*
X14615771Y-15004409D01*
X14787200Y-15061552D02*
X14806248Y-15071076D01*
X14844343Y-15071076D01*
X14863390Y-15061552D01*
X14872914Y-15042505D01*
X14872914Y-15032981D01*
X14863390Y-15013933D01*
X14844343Y-15004409D01*
X14815771Y-15004409D01*
X14796724Y-14994886D01*
X14787200Y-14975838D01*
X14787200Y-14966314D01*
X14796724Y-14947267D01*
X14815771Y-14937743D01*
X14844343Y-14937743D01*
X14863390Y-14947267D01*
X14939581Y-15147267D02*
X14949105Y-15137743D01*
X14968152Y-15109171D01*
X14977676Y-15090124D01*
X14987200Y-15061552D01*
X14996724Y-15013933D01*
X14996724Y-14975838D01*
X14987200Y-14928219D01*
X14977676Y-14899648D01*
X14968152Y-14880600D01*
X14949105Y-14852028D01*
X14939581Y-14842505D01*
D14*
X9927200Y-15194600D02*
X9927200Y-15294600D01*
X9877200Y-15244600D02*
X9977200Y-15244600D01*
D11*
X10339581Y-15335076D02*
X10225295Y-15335076D01*
X10282438Y-15335076D02*
X10282438Y-15135076D01*
X10263390Y-15163648D01*
X10244343Y-15182695D01*
X10225295Y-15192219D01*
X10425295Y-15316028D02*
X10434819Y-15325552D01*
X10425295Y-15335076D01*
X10415771Y-15325552D01*
X10425295Y-15316028D01*
X10425295Y-15335076D01*
X10558629Y-15135076D02*
X10577676Y-15135076D01*
X10596724Y-15144600D01*
X10606248Y-15154124D01*
X10615771Y-15173171D01*
X10625295Y-15211267D01*
X10625295Y-15258886D01*
X10615771Y-15296981D01*
X10606248Y-15316028D01*
X10596724Y-15325552D01*
X10577676Y-15335076D01*
X10558629Y-15335076D01*
X10539581Y-15325552D01*
X10530057Y-15316028D01*
X10520533Y-15296981D01*
X10511010Y-15258886D01*
X10511010Y-15211267D01*
X10520533Y-15173171D01*
X10530057Y-15154124D01*
X10539581Y-15144600D01*
X10558629Y-15135076D01*
X10749105Y-15135076D02*
X10768152Y-15135076D01*
X10787200Y-15144600D01*
X10796724Y-15154124D01*
X10806248Y-15173171D01*
X10815771Y-15211267D01*
X10815771Y-15258886D01*
X10806248Y-15296981D01*
X10796724Y-15316028D01*
X10787200Y-15325552D01*
X10768152Y-15335076D01*
X10749105Y-15335076D01*
X10730057Y-15325552D01*
X10720533Y-15316028D01*
X10711010Y-15296981D01*
X10701486Y-15258886D01*
X10701486Y-15211267D01*
X10711010Y-15173171D01*
X10720533Y-15154124D01*
X10730057Y-15144600D01*
X10749105Y-15135076D01*
X10939581Y-15135076D02*
X10958629Y-15135076D01*
X10977676Y-15144600D01*
X10987200Y-15154124D01*
X10996724Y-15173171D01*
X11006248Y-15211267D01*
X11006248Y-15258886D01*
X10996724Y-15296981D01*
X10987200Y-15316028D01*
X10977676Y-15325552D01*
X10958629Y-15335076D01*
X10939581Y-15335076D01*
X10920533Y-15325552D01*
X10911010Y-15316028D01*
X10901486Y-15296981D01*
X10891962Y-15258886D01*
X10891962Y-15211267D01*
X10901486Y-15173171D01*
X10911010Y-15154124D01*
X10920533Y-15144600D01*
X10939581Y-15135076D01*
X11091962Y-15335076D02*
X11091962Y-15201743D01*
X11091962Y-15220790D02*
X11101486Y-15211267D01*
X11120533Y-15201743D01*
X11149105Y-15201743D01*
X11168152Y-15211267D01*
X11177676Y-15230314D01*
X11177676Y-15335076D01*
X11177676Y-15230314D02*
X11187200Y-15211267D01*
X11206248Y-15201743D01*
X11234819Y-15201743D01*
X11253867Y-15211267D01*
X11263390Y-15230314D01*
X11263390Y-15335076D01*
X11358628Y-15335076D02*
X11358628Y-15201743D01*
X11358628Y-15220790D02*
X11368152Y-15211267D01*
X11387200Y-15201743D01*
X11415771Y-15201743D01*
X11434819Y-15211267D01*
X11444343Y-15230314D01*
X11444343Y-15335076D01*
X11444343Y-15230314D02*
X11453867Y-15211267D01*
X11472914Y-15201743D01*
X11501486Y-15201743D01*
X11520533Y-15211267D01*
X11530057Y-15230314D01*
X11530057Y-15335076D01*
X11920533Y-15125552D02*
X11749105Y-15382695D01*
X12177676Y-15135076D02*
X12196724Y-15135076D01*
X12215771Y-15144600D01*
X12225295Y-15154124D01*
X12234819Y-15173171D01*
X12244343Y-15211267D01*
X12244343Y-15258886D01*
X12234819Y-15296981D01*
X12225295Y-15316028D01*
X12215771Y-15325552D01*
X12196724Y-15335076D01*
X12177676Y-15335076D01*
X12158628Y-15325552D01*
X12149105Y-15316028D01*
X12139581Y-15296981D01*
X12130057Y-15258886D01*
X12130057Y-15211267D01*
X12139581Y-15173171D01*
X12149105Y-15154124D01*
X12158628Y-15144600D01*
X12177676Y-15135076D01*
X12330057Y-15316028D02*
X12339581Y-15325552D01*
X12330057Y-15335076D01*
X12320533Y-15325552D01*
X12330057Y-15316028D01*
X12330057Y-15335076D01*
X12463390Y-15135076D02*
X12482438Y-15135076D01*
X12501486Y-15144600D01*
X12511009Y-15154124D01*
X12520533Y-15173171D01*
X12530057Y-15211267D01*
X12530057Y-15258886D01*
X12520533Y-15296981D01*
X12511009Y-15316028D01*
X12501486Y-15325552D01*
X12482438Y-15335076D01*
X12463390Y-15335076D01*
X12444343Y-15325552D01*
X12434819Y-15316028D01*
X12425295Y-15296981D01*
X12415771Y-15258886D01*
X12415771Y-15211267D01*
X12425295Y-15173171D01*
X12434819Y-15154124D01*
X12444343Y-15144600D01*
X12463390Y-15135076D01*
X12596724Y-15135076D02*
X12720533Y-15135076D01*
X12653867Y-15211267D01*
X12682438Y-15211267D01*
X12701486Y-15220790D01*
X12711009Y-15230314D01*
X12720533Y-15249362D01*
X12720533Y-15296981D01*
X12711009Y-15316028D01*
X12701486Y-15325552D01*
X12682438Y-15335076D01*
X12625295Y-15335076D01*
X12606248Y-15325552D01*
X12596724Y-15316028D01*
X12815771Y-15335076D02*
X12853867Y-15335076D01*
X12872914Y-15325552D01*
X12882438Y-15316028D01*
X12901486Y-15287457D01*
X12911009Y-15249362D01*
X12911009Y-15173171D01*
X12901486Y-15154124D01*
X12891962Y-15144600D01*
X12872914Y-15135076D01*
X12834819Y-15135076D01*
X12815771Y-15144600D01*
X12806248Y-15154124D01*
X12796724Y-15173171D01*
X12796724Y-15220790D01*
X12806248Y-15239838D01*
X12815771Y-15249362D01*
X12834819Y-15258886D01*
X12872914Y-15258886D01*
X12891962Y-15249362D01*
X12901486Y-15239838D01*
X12911009Y-15220790D01*
X13082438Y-15201743D02*
X13082438Y-15335076D01*
X13034819Y-15125552D02*
X12987200Y-15268409D01*
X13111009Y-15268409D01*
X13177676Y-15135076D02*
X13177676Y-15173171D01*
X13253867Y-15135076D02*
X13253867Y-15173171D01*
X13549105Y-15411267D02*
X13539581Y-15401743D01*
X13520533Y-15373171D01*
X13511009Y-15354124D01*
X13501486Y-15325552D01*
X13491962Y-15277933D01*
X13491962Y-15239838D01*
X13501486Y-15192219D01*
X13511009Y-15163648D01*
X13520533Y-15144600D01*
X13539581Y-15116028D01*
X13549105Y-15106505D01*
X13720533Y-15135076D02*
X13625295Y-15135076D01*
X13615771Y-15230314D01*
X13625295Y-15220790D01*
X13644343Y-15211267D01*
X13691962Y-15211267D01*
X13711009Y-15220790D01*
X13720533Y-15230314D01*
X13730057Y-15249362D01*
X13730057Y-15296981D01*
X13720533Y-15316028D01*
X13711009Y-15325552D01*
X13691962Y-15335076D01*
X13644343Y-15335076D01*
X13625295Y-15325552D01*
X13615771Y-15316028D01*
X13968152Y-15335076D02*
X13968152Y-15135076D01*
X14053867Y-15335076D02*
X14053867Y-15230314D01*
X14044343Y-15211267D01*
X14025295Y-15201743D01*
X13996724Y-15201743D01*
X13977676Y-15211267D01*
X13968152Y-15220790D01*
X14177676Y-15335076D02*
X14158628Y-15325552D01*
X14149105Y-15316028D01*
X14139581Y-15296981D01*
X14139581Y-15239838D01*
X14149105Y-15220790D01*
X14158628Y-15211267D01*
X14177676Y-15201743D01*
X14206248Y-15201743D01*
X14225295Y-15211267D01*
X14234819Y-15220790D01*
X14244343Y-15239838D01*
X14244343Y-15296981D01*
X14234819Y-15316028D01*
X14225295Y-15325552D01*
X14206248Y-15335076D01*
X14177676Y-15335076D01*
X14358628Y-15335076D02*
X14339581Y-15325552D01*
X14330057Y-15306505D01*
X14330057Y-15135076D01*
X14511009Y-15325552D02*
X14491962Y-15335076D01*
X14453867Y-15335076D01*
X14434819Y-15325552D01*
X14425295Y-15306505D01*
X14425295Y-15230314D01*
X14434819Y-15211267D01*
X14453867Y-15201743D01*
X14491962Y-15201743D01*
X14511009Y-15211267D01*
X14520533Y-15230314D01*
X14520533Y-15249362D01*
X14425295Y-15268409D01*
X14596724Y-15325552D02*
X14615771Y-15335076D01*
X14653867Y-15335076D01*
X14672914Y-15325552D01*
X14682438Y-15306505D01*
X14682438Y-15296981D01*
X14672914Y-15277933D01*
X14653867Y-15268409D01*
X14625295Y-15268409D01*
X14606248Y-15258886D01*
X14596724Y-15239838D01*
X14596724Y-15230314D01*
X14606248Y-15211267D01*
X14625295Y-15201743D01*
X14653867Y-15201743D01*
X14672914Y-15211267D01*
X14749105Y-15411267D02*
X14758628Y-15401743D01*
X14777676Y-15373171D01*
X14787200Y-15354124D01*
X14796724Y-15325552D01*
X14806248Y-15277933D01*
X14806248Y-15239838D01*
X14796724Y-15192219D01*
X14787200Y-15163648D01*
X14777676Y-15144600D01*
X14758628Y-15116028D01*
X14749105Y-15106505D01*
M02*
